<svg width="95" height="95" viewBox="0 0 95 95" fill="none" xmlns="http://www.w3.org/2000/svg">
<path d="M47.5 0C34.6097 0 32.9888 0.059375 27.9241 0.285C22.8594 0.5225 19.4097 1.31812 16.3875 2.49375C13.2174 3.68611 10.346 5.55647 7.97406 7.97406C5.55795 10.3473 3.68782 13.2183 2.49375 16.3875C1.31812 19.4037 0.516563 22.8594 0.285 27.9062C0.059375 32.9828 0 34.5978 0 47.5059C0 60.4022 0.059375 62.0172 0.285 67.0819C0.5225 72.1406 1.31812 75.5903 2.49375 78.6125C3.71094 81.7356 5.33188 84.3838 7.97406 87.0259C10.6103 89.6681 13.2584 91.295 16.3816 92.5062C19.4097 93.6819 22.8534 94.4834 27.9122 94.715C32.9828 94.9406 34.5978 95 47.5 95C60.4022 95 62.0113 94.9406 67.0819 94.715C72.1347 94.4775 75.5963 93.6819 78.6184 92.5062C81.7865 91.3133 84.6558 89.443 87.0259 87.0259C89.6681 84.3838 91.2891 81.7356 92.5062 78.6125C93.6759 75.5903 94.4775 72.1406 94.715 67.0819C94.9406 62.0172 95 60.4022 95 47.5C95 34.5978 94.9406 32.9828 94.715 27.9122C94.4775 22.8594 93.6759 19.4037 92.5062 16.3875C91.3123 13.2182 89.4422 10.3471 87.0259 7.97406C84.6547 5.55557 81.7831 3.68508 78.6125 2.49375C75.5844 1.31812 72.1287 0.516563 67.0759 0.285C62.0053 0.059375 60.3963 0 47.4881 0H47.5059H47.5ZM43.2428 8.56188H47.5059C60.1884 8.56188 61.6906 8.60344 66.6959 8.835C71.3272 9.04281 73.8447 9.82063 75.5191 10.4678C77.7337 11.3287 79.3191 12.3619 80.9816 14.0244C82.6441 15.6869 83.6712 17.2663 84.5322 19.4869C85.1853 21.1553 85.9572 23.6728 86.165 28.3041C86.3966 33.3094 86.4441 34.8116 86.4441 47.4881C86.4441 60.1647 86.3966 61.6728 86.165 66.6781C85.9572 71.3094 85.1794 73.8209 84.5322 75.4953C83.7707 77.5578 82.5552 79.4226 80.9756 80.9519C79.3131 82.6144 77.7337 83.6416 75.5131 84.5025C73.8506 85.1556 71.3331 85.9275 66.6959 86.1413C61.6906 86.3669 60.1884 86.4203 47.5059 86.4203C34.8234 86.4203 33.3153 86.3669 28.31 86.1413C23.6788 85.9275 21.1672 85.1556 19.4928 84.5025C17.4295 83.742 15.5629 82.5287 14.0303 80.9519C12.4495 79.4202 11.2321 77.5536 10.4678 75.4894C9.82063 73.8209 9.04281 71.3034 8.835 66.6722C8.60938 61.6669 8.56188 60.1647 8.56188 47.4762C8.56188 34.7938 8.60938 33.2975 8.835 28.2922C9.04875 23.6609 9.82063 21.1434 10.4738 19.4691C11.3347 17.2544 12.3678 15.6691 14.0303 14.0066C15.6928 12.3441 17.2722 11.3169 19.4928 10.4559C21.1672 9.80281 23.6788 9.03094 28.31 8.81719C32.6919 8.61531 34.39 8.55594 43.2428 8.55V8.56188ZM72.8591 16.4469C72.1105 16.4469 71.3693 16.5943 70.6778 16.8808C69.9862 17.1672 69.3578 17.5871 68.8286 18.1164C68.2993 18.6457 67.8794 19.274 67.5929 19.9656C67.3065 20.6571 67.1591 21.3983 67.1591 22.1469C67.1591 22.8954 67.3065 23.6366 67.5929 24.3282C67.8794 25.0197 68.2993 25.6481 68.8286 26.1774C69.3578 26.7067 69.9862 27.1265 70.6778 27.413C71.3693 27.6994 72.1105 27.8469 72.8591 27.8469C74.3708 27.8469 75.8206 27.2463 76.8896 26.1774C77.9585 25.1084 78.5591 23.6586 78.5591 22.1469C78.5591 20.6351 77.9585 19.1853 76.8896 18.1164C75.8206 17.0474 74.3708 16.4469 72.8591 16.4469ZM47.5059 23.1087C44.2704 23.0583 41.0572 23.6519 38.0533 24.8552C35.0494 26.0585 32.3149 27.8473 30.009 30.1175C27.7031 32.3877 25.8718 35.094 24.6219 38.0787C23.3719 41.0635 22.7282 44.2671 22.7282 47.503C22.7282 50.7389 23.3719 53.9425 24.6219 56.9272C25.8718 59.9119 27.7031 62.6182 30.009 64.8884C32.3149 67.1586 35.0494 68.9475 38.0533 70.1507C41.0572 71.354 44.2704 71.9477 47.5059 71.8972C53.9098 71.7973 60.0175 69.1832 64.5108 64.6193C69.0041 60.0554 71.5225 53.9076 71.5225 47.503C71.5225 41.0984 69.0041 34.9506 64.5108 30.3866C60.0175 25.8227 53.9098 23.2087 47.5059 23.1087ZM47.5059 31.6647C51.7057 31.6647 55.7335 33.333 58.7032 36.3027C61.6729 39.2724 63.3413 43.3002 63.3413 47.5C63.3413 51.6998 61.6729 55.7276 58.7032 58.6973C55.7335 61.667 51.7057 63.3353 47.5059 63.3353C43.3062 63.3353 39.2784 61.667 36.3087 58.6973C33.339 55.7276 31.6706 51.6998 31.6706 47.5C31.6706 43.3002 33.339 39.2724 36.3087 36.3027C39.2784 33.333 43.3062 31.6647 47.5059 31.6647Z" fill="white"/>
</svg>
