<svg width="96" height="96" viewBox="0 0 96 96" fill="none" xmlns="http://www.w3.org/2000/svg">
<g clip-path="url(#clip0_49_75)">
<path d="M81.606 13.9561C77.2048 9.51411 71.9636 5.99252 66.1878 3.59648C60.412 1.20045 54.217 -0.0221098 47.964 5.18426e-05C21.762 5.18426e-05 0.408 21.3481 0.384 47.5561C0.384 55.9501 2.58 64.1161 6.726 71.3461L0 96.0001L25.224 89.3881C32.202 93.1855 40.0196 95.176 47.964 95.1781H47.988C74.196 95.1781 95.544 73.8301 95.568 47.5981C95.574 41.3463 94.3429 35.1552 91.9456 29.3813C89.5483 23.6075 86.0323 18.365 81.6 13.9561H81.606ZM47.964 87.1261C40.878 87.1284 33.9222 85.2216 27.828 81.6061L26.388 80.7421L11.424 84.6661L15.42 70.0681L14.484 68.5621C10.5228 62.264 8.42788 54.9722 8.442 47.5321C8.442 25.7761 26.184 8.02805 47.988 8.02805C53.1824 8.01873 58.3274 9.0377 63.1261 11.0262C67.9249 13.0147 72.2826 15.9334 75.948 19.6141C79.6262 23.2803 82.5421 27.6386 84.5275 32.4374C86.513 37.2363 87.5287 42.3807 87.516 47.574C87.492 69.408 69.75 87.1261 47.964 87.1261V87.1261ZM69.654 57.5221C68.472 56.9281 62.634 54.0541 61.536 53.6461C60.444 53.2561 59.646 53.0521 58.866 54.2401C58.068 55.4221 55.788 58.1161 55.104 58.8901C54.42 59.6881 53.712 59.7781 52.524 59.1901C51.342 58.5901 47.508 57.3421 42.972 53.2801C39.432 50.1301 37.062 46.23 36.354 45.048C35.67 43.86 36.288 43.2241 36.882 42.6301C37.404 42.1021 38.064 41.238 38.658 40.554C39.258 39.87 39.456 39.366 39.846 38.574C40.236 37.77 40.05 37.086 39.756 36.492C39.456 35.898 37.086 30.0361 36.084 27.6721C35.124 25.3381 34.146 25.662 33.414 25.632C32.73 25.59 31.932 25.59 31.134 25.59C30.5314 25.605 29.9384 25.7444 29.3922 25.9994C28.846 26.2545 28.3584 26.6196 27.96 27.0721C26.868 28.2601 23.814 31.134 23.814 36.996C23.814 42.858 28.074 48.4921 28.674 49.2901C29.262 50.0881 37.038 62.0821 48.972 67.2421C51.792 68.4721 54.012 69.1981 55.746 69.7501C58.596 70.6621 61.17 70.5241 63.222 70.2301C65.502 69.8821 70.248 67.3501 71.25 64.5721C72.234 61.7881 72.234 59.4121 71.934 58.9141C71.64 58.4101 70.842 58.1161 69.654 57.5221V57.5221Z" fill="white"/>
</g>
<defs>
<clipPath id="clip0_49_75">
<rect width="96" height="96" fill="white"/>
</clipPath>
</defs>
</svg>
